<svg xmlns="http://www.w3.org/2000/svg" width="48" height="48" fill="none"><path fill="url(#a)" d="M10.512 0h26.976C43.294 0 48 4.706 48 10.512v26.976C48 43.294 43.294 48 37.488 48H10.512C4.706 48 0 43.294 0 37.488V10.512C0 4.706 4.706 0 10.512 0"/><path fill="#fff" d="M15.383 34.84h.005l-1.641 2.843a2.17 2.17 0 0 1-3.758-2.169l1.21-2.094.115-.2c.208-.299.719-.813 1.742-.716 0 0 2.407.261 2.58 1.512 0 0 .025.412-.252.824Zm23.277-7.26h-5.117c-.349-.024-.501-.148-.56-.22l-.005-.008-5.478-9.488-.007.005-.328-.471c-.539-.824-1.394 1.282-1.394 1.282-1.02 2.347.145 5.015.551 5.821l7.61 13.18a2.17 2.17 0 0 0 3.757-2.17l-1.903-3.296c-.037-.08-.1-.296.29-.297h2.584a2.17 2.17 0 0 0 0-4.339Zm-9.94 2.949s.273 1.389-.784 1.389H9.018a2.17 2.17 0 0 1 0-4.339h4.864c.785-.045.971-.498.971-.498l.004.002 6.35-10.997h-.003a.48.48 0 0 0 .003-.445l-2.097-3.632a2.17 2.17 0 1 1 3.758-2.17l.972 1.685.97-1.681a2.17 2.17 0 1 1 3.758 2.17l-8.834 15.301c-.04.093-.05.24.236.265h5.281l.001.052s3.053.047 3.468 2.898"/><defs><linearGradient id="a" x1="48" x2="48" y1="-8.384" y2="77.282" gradientUnits="userSpaceOnUse"><stop offset=".001" stop-color="#17C9FB"/><stop offset="1" stop-color="#1A74E8"/></linearGradient></defs></svg>