<svg xmlns="http://www.w3.org/2000/svg" width="44" height="48" fill="none"><path fill="#EA4335" d="M20.427 22.951.23 44.066C.885 46.296 2.984 48 5.476 48q1.574 0 2.754-.786L31.05 34.23 20.426 22.95Z"/><path fill="#FBBC04" d="m40.885 19.279-9.836-5.64-11.016 9.706L31.18 34.23l9.836-5.508c1.705-.918 2.886-2.755 2.886-4.722-.132-1.967-1.312-3.803-3.017-4.721"/><path fill="#4285F4" d="M.23 3.935c-.131.393-.131.918-.131 1.442v37.377c0 .525 0 .918.13 1.443l20.984-20.59z"/><path fill="#34A853" d="m20.558 24 10.491-10.36L8.361.786C7.574.262 6.525 0 5.476 0 2.984 0 .754 1.705.23 3.934z"/></svg>