<svg xmlns="http://www.w3.org/2000/svg" width="48" height="48" fill="none"><mask id="a" width="44" height="44" x="2" y="2" maskUnits="userSpaceOnUse" style="mask-type:luminance"><path fill="#fff" d="M46 2H2v44h44z"/></mask><g mask="url(#a)"><path fill="#fff" d="M24 35c6.075 0 11-4.925 11-11s-4.925-11-11-11-11 4.925-11 11 4.925 11 11 11"/><path fill="url(#b)" d="M24 13h19.05a21.995 21.995 0 0 0-38.1.003L14.473 29.5l.008-.002A10.986 10.986 0 0 1 24 13"/><path fill="#1A73E8" d="M23.997 32.705a8.708 8.708 0 1 0 0-17.417 8.708 8.708 0 0 0 0 17.417"/><path fill="url(#c)" d="M33.525 29.5 24 45.997A21.994 21.994 0 0 0 43.048 13h-19.05l-.002.009a10.985 10.985 0 0 1 9.529 16.49Z"/><path fill="url(#d)" d="M14.473 29.507 4.948 13.009a21.995 21.995 0 0 0 19.053 32.995l9.524-16.497-.006-.007a10.985 10.985 0 0 1-19.046.007"/></g><defs><linearGradient id="b" x1="4.949" x2="43.049" y1="15.75" y2="15.75" gradientUnits="userSpaceOnUse"><stop stop-color="#D93025"/><stop offset="1" stop-color="#EA4335"/></linearGradient><linearGradient id="c" x1="20.994" x2="40.045" y1="45.703" y2="12.707" gradientUnits="userSpaceOnUse"><stop stop-color="#FCC934"/><stop offset="1" stop-color="#FBBC04"/></linearGradient><linearGradient id="d" x1="26.38" x2="7.33" y1="44.63" y2="11.634" gradientUnits="userSpaceOnUse"><stop stop-color="#1E8E3E"/><stop offset="1" stop-color="#34A853"/></linearGradient></defs></svg>